<?xml version="1.0" encoding="utf-8"?>
<!-- Generator: Adobe Illustrator 22.1.0, SVG Export Plug-In . SVG Version: 6.00 Build 0)  -->
<svg version="1.1" id="Layer_1" xmlns="http://www.w3.org/2000/svg" xmlns:xlink="http://www.w3.org/1999/xlink" x="0px" y="0px"
	 viewBox="0 0 800 200" style="enable-background:new 0 0 800 200;" xml:space="preserve">
<style type="text/css">
	.st0{fill:#FFFFFF;}
</style>
<g>
	<g>
		<g id="dark_7_">
			<g>
				<path class="st0" d="M282.5,128.6c0,6.2-2.7,11.4-8.1,15.6c-5.4,4.2-12.2,6.4-20.4,6.4c-7.1,0-13.4-1.9-18.8-5.6
					c-5.4-3.7-9.2-8.6-11.6-14.7l11.8-5.1c1.7,4.2,4.3,7.5,7.6,9.9c3.3,2.4,7,3.5,10.9,3.5c4.2,0,7.8-0.9,10.6-2.7
					c2.8-1.8,4.3-4,4.3-6.5c0-4.5-3.5-7.8-10.4-10l-12.1-3c-13.8-3.5-20.7-10.1-20.7-19.9c0-6.4,2.6-11.6,7.9-15.5
					c5.2-3.9,12-5.8,20.1-5.8c6.3,0,11.9,1.5,17,4.5c5.1,3,8.6,7,10.6,12l-11.8,4.9c-1.3-3-3.5-5.3-6.6-7c-3-1.7-6.4-2.5-10.2-2.5
					c-3.5,0-6.6,0.9-9.3,2.6c-2.7,1.7-4.1,3.9-4.1,6.4c0,4,3.8,6.9,11.4,8.7l10.7,2.7C275.5,110.9,282.5,117.9,282.5,128.6z"/>
				<path class="st0" d="M319.8,149.4c-5.8,0-10.6-1.8-14.4-5.3c-3.8-3.6-5.8-8.5-5.8-14.9V89.6h-12.4V77.5h12.4V55.8h13.3v21.7
					h17.3v12.1h-17.3v35.2c0,4.7,0.9,7.9,2.7,9.6c1.8,1.7,3.9,2.5,6.2,2.5c1.1,0,2.1-0.1,3.1-0.4c1-0.2,1.9-0.6,2.8-0.9l4.2,11.8
					C328.5,148.8,324.4,149.4,319.8,149.4z"/>
				<path class="st0" d="M352.4,148.3h-13.3V77.5h12.7V89h0.6c1.3-3.8,4.1-7,8.3-9.6c4.2-2.6,8.3-4,12.3-4c3.9,0,7.1,0.6,9.8,1.7
					l-4,12.9c-1.6-0.7-4.2-1-7.8-1c-5,0-9.4,2-13.1,6.1c-3.7,4-5.6,8.8-5.6,14.2V148.3z"/>
				<path class="st0" d="M415.3,75.2c9.8,0,17.6,2.6,23.3,7.9c5.7,5.2,8.5,12.4,8.5,21.6v43.6h-12.7v-9.8h-0.6
					c-5.5,8.1-12.8,12.1-22,12.1c-7.8,0-14.3-2.3-19.6-6.9c-5.2-4.6-7.9-10.4-7.9-17.3c0-7.3,2.8-13.1,8.3-17.5
					c5.5-4.3,12.9-6.5,22.2-6.5c7.9,0,14.4,1.4,19.5,4.3v-3c0-4.6-1.8-8.5-5.5-11.8c-3.7-3.2-7.9-4.8-12.9-4.8
					c-7.4,0-13.3,3.1-17.6,9.4L386.7,89C393.1,79.8,402.6,75.2,415.3,75.2z M398.1,126.6c0,3.5,1.5,6.4,4.4,8.7
					c2.9,2.3,6.4,3.5,10.3,3.5c5.6,0,10.6-2.1,14.9-6.2c4.4-4.1,6.6-9,6.6-14.6c-4.1-3.3-9.9-4.9-17.3-4.9c-5.4,0-9.9,1.3-13.5,3.9
					C399.9,119.5,398.1,122.7,398.1,126.6z"/>
				<path class="st0" d="M568.4,44c4.8,0,8.8,0.8,11.8,2.5l-3.6,11.7c-2.3-1.2-4.9-1.7-7.8-1.7c-3.3,0-5.9,1.1-8,3.4
					c-2.1,2.3-3.1,5.3-3.1,9v9h18.5v12.1h-18.5v58.6h-13.3V89.9h-13.3V77.8h13.3V67.5c0-7,2.2-12.7,6.7-17
					C555.6,46.1,561.3,44,568.4,44z"/>
				<path class="st0" d="M651.5,77.5l-44.3,102h-13.7l16.5-35.7l-29.2-66.3h14.4l21.1,50.8h0.3l20.5-50.8H651.5z"/>
				<path class="st0" d="M683.9,150.6c-9.2,0-17.2-3.7-23.8-11c-6.5-7.4-9.8-16.3-9.8-26.7c0-10.4,3.3-19.3,9.8-26.7
					c6.6-7.3,14.6-11,23.8-11c5.2,0,9.9,1.1,14.2,3.3c4.3,2.2,7.6,5.2,9.9,8.8h0.6l-0.6-9.8V44.8h13.3v103.4h-12.7v-9.8h-0.6
					c-2.3,3.7-5.6,6.6-9.9,8.8C693.9,149.5,689.1,150.6,683.9,150.6z M686.1,138.4c6.5,0,11.9-2.4,16-7.1c4.3-4.7,6.5-10.9,6.5-18.5
					c0-7.4-2.2-13.5-6.5-18.3c-4.2-4.8-9.6-7.2-16-7.2c-6.4,0-11.7,2.4-16,7.2c-4.3,4.8-6.5,10.9-6.5,18.3c0,7.5,2.2,13.6,6.5,18.3
					C674.4,136,679.8,138.4,686.1,138.4z"/>
			</g>
			<g>
				<path class="st0" d="M734.7,45.1v14.3h-2.1V45.1H728v-2h11.2v2H734.7z"/>
				<path class="st0" d="M743.5,59.4h-2.1V43.1h2.1l5.7,9.9h0.1l5.7-9.9h2.1v16.3H755v-9.7l0.1-2.7H755l-5.1,9h-1.2l-5.1-9h-0.1
					l0.1,2.7V59.4z"/>
			</g>
		</g>
		<g>
			<path class="st0" d="M516.5,41.9c-1.2,0-2.4,0.3-3.6,0.8c-1.1,0.5-2.1,1.2-3,2.1c-0.9,0.9-1.5,2-2,3.1c-0.5,1.1-0.7,2.5-0.7,3.9
				c0,1.4,0.2,2.7,0.7,3.9c0.5,1.2,1.2,2.2,2,3.1c0.8,0.9,1.8,1.6,3,2.1c1.1,0.5,2.3,0.8,3.6,0.8c2.6,0,4.8-0.9,6.6-2.9
				c1.9-1.9,2.8-4.2,2.8-7c0-2.8-0.9-5-2.8-7C521.2,42.8,519.1,41.9,516.5,41.9z"/>
			<path class="st0" d="M471.1,143.3L471.1,143.3c1.6,1.8,3.7,3.2,6.1,4.2c2.5,1,5.3,1.6,8.4,1.6c2.8,0,5.4-0.3,7.7-0.8
				c1.5-0.3,2.9-0.8,4.3-1.3l-3.6-11.8c-0.1,0-0.1,0.1-0.2,0.1c-1.2,0.5-2.8,0.7-4.7,0.7c-3.2,0-5.8-1.1-7.7-3.4
				c-1.2-1.3-2.1-3-2.5-5c-0.4-1.7-0.6-3.5-0.6-5.5V89h31.5v59.6h13.2V77.7h-44.7l0-2.7V55.2h-13.2v22.5h-12.4V89h12.4v36.6
				C465.2,133.3,467.2,139.2,471.1,143.3z"/>
		</g>
	</g>
	<g>
		<circle class="st0" cx="154.3" cy="164.6" r="11.3"/>
		<path class="st0" d="M183.6,91.2c-6,0-10.9,4.9-10.9,10.9v17.7c0,6,4.9,10.9,10.9,10.9c6,0,10.9-4.9,10.9-10.9v-17.7
			C194.5,96.1,189.6,91.2,183.6,91.2z"/>
		<path class="st0" d="M130.7,128.4c0-3.4,2.8-6.2,6.2-6.2s6.2,2.8,6.2,6.2v9.7c0.5,5.5,5.2,9.9,10.8,9.9c6,0,10.9-4.9,10.9-10.9
			V73.9c0-6-4.9-10.9-10.9-10.9c-5.7,0-10.3,4.3-10.8,9.9v37.2c0,3.4-2.8,6.2-6.2,6.2s-6.2-2.8-6.2-6.2V43.3c0-6-4.9-10.9-10.9-10.9
			c-6,0-10.9,4.9-10.9,10.9l-0.1,33.1c0,3.4-2.8,6.2-6.2,6.2c-3.4,0-6.2-2.8-6.2-6.2l-0.1-4.8c0-6-4.9-10.9-10.9-10.9
			c-6,0-10.9,4.9-10.9,10.9l-0.1,33.3c0,3.4-2.8,6.2-6.2,6.2c-3.4,0-6.2-2.8-6.2-6.2V86.1c-0.7-5.3-5.3-9.4-10.8-9.4
			c-6,0-10.9,4.9-10.9,10.9v43.3c0,6,4.9,10.9,10.9,10.9c5.5,0,10.1-4.1,10.8-9.4v-9.5c0-3.4,2.8-6.2,6.2-6.2c3.3,0,6,2.6,6.2,5.9
			h0.1v8.8c0,6,4.9,10.9,10.9,10.9c6,0,10.9-4.9,10.9-10.9v-28.1h0.1c0-3.4,2.8-6.2,6.2-6.2c3.4,0,6.2,2.8,6.2,6.2h0.1v48.1
			c0,6,4.9,10.9,10.9,10.9c6,0,10.9-4.9,10.9-10.9V128.4z"/>
	</g>
</g>
</svg>
